<?xml version="1.0" encoding="iso-8859-1"?>
<!-- Generator: Adobe Illustrator 21.0.0, SVG Export Plug-In . SVG Version: 6.00 Build 0)  -->
<svg xmlns="http://www.w3.org/2000/svg" xmlns:xlink="http://www.w3.org/1999/xlink" version="1.1" id="Capa_1" x="0px" y="0px" viewBox="0 0 512 512" style="enable-background:new 0 0 512 512;" xml:space="preserve" width="512" height="512">
<g>
	
		<ellipse transform="matrix(0.0547 -0.9985 0.9985 0.0547 -2.6476 487.2164)" style="fill:#F5585C;" cx="256" cy="245.007" rx="245" ry="245"/>
	<path style="fill:#494970;" d="M483.235,337.325c0,16.635-101.736,30.12-227.235,30.12S28.765,353.96,28.765,337.325   c0-16.635,101.736-32.483,227.235-32.483S483.235,320.69,483.235,337.325z"/>
	<path style="fill:#3A3A60;" d="M28.765,337.325c0,12.292,55.554,22.862,135.19,27.545c-8.696-23.725,4.958-50.103,29.683-56.426   c-6.384-0.479-12.796-0.906-19.222-1.285C89.225,312.149,28.765,324.502,28.765,337.325z"/>
	<g>
		<path style="fill:#F6A221;" d="M119.027,498.044l-27.292-57.501c-2.098-4.42-0.216-9.704,4.205-11.802    c4.421-2.098,9.705-0.216,11.802,4.205l27.292,57.502c2.098,4.42,0.216,9.704-4.205,11.802    C126.382,504.362,121.111,502.436,119.027,498.044z"/>
	</g>
	<g>
		<path style="fill:#F6A221;" d="M68.648,502.249c-4.42-2.098-6.303-7.382-4.205-11.802l27.291-57.502    c2.098-4.419,7.381-6.302,11.802-4.205c4.42,2.098,6.303,7.382,4.205,11.802l-27.291,57.501    C78.346,502.478,73.055,504.342,68.648,502.249z"/>
	</g>
	<path style="fill:#494970;" d="M249.749,26.778L23.82,166.643c-6.912,20.516-11.211,42.289-12.453,64.958   c-0.35,6.388-0.45,12.732-0.313,19.023l50.167,17.757l14.715-45.722c0-15.932,80.617-28.847,180.064-28.847   c99.447,0,180.064,12.915,180.064,28.847l14.714,45.722l50.145-17.75c0.69-29.316-3.828-57.616-12.736-83.983L262.251,26.778   C258.421,24.407,253.579,24.407,249.749,26.778z"/>
	<g>
		<path style="fill:#3A3A60;" d="M166.539,78.291L23.82,166.643c-9.071,26.927-13.393,55.317-12.766,83.98l50.167,17.757    l14.714-45.722c0-11.823,44.407-21.984,107.953-26.438C146.952,167.915,139.533,115.616,166.539,78.291z"/>
	</g>
	<g>
		<path style="fill:#5D5D84;" d="M256,273.958c91.252,0,170.856,7.974,213.216,19.806l-25.204-78.317    c0-16.635-84.176-30.12-188.011-30.12c-103.836,0-188.011,13.485-188.011,30.12l-25.204,78.317    C85.144,281.932,164.749,273.958,256,273.958z"/>
	</g>
	<path style="fill:#494970;" d="M174.884,188.268c-63.227,4.852-106.895,15.198-106.895,27.18l-25.204,78.318   c27.391-7.651,70.369-13.685,121.985-16.997C159.636,230.138,174.877,188.285,174.884,188.268z"/>
	<path style="fill:#FAB941;" d="M482.412,334.769l-13.69-42.54C428.617,279.965,348.415,271.596,256,271.596   s-172.617,8.369-212.722,20.634l-13.69,42.54c6.12-9.65,46.556-18.005,105.078-22.913c35.442-2.973,70.12,11.468,92.86,38.815   l17.963,21.602c5.465,6.573,15.555,6.573,21.021,0l17.964-21.602c22.74-27.347,57.419-41.788,92.86-38.815   C435.856,316.764,476.292,325.119,482.412,334.769z"/>
	<path style="fill:#F6A221;" d="M174.509,315.884c-5.634-13.637-8.659-27.748-9.975-41.396   c-52.239,3.453-95.207,9.775-121.255,17.741l-13.69,42.54c6.12-9.65,46.556-18.005,105.078-22.913   C148.271,310.714,161.761,312.148,174.509,315.884z"/>
	<g>
		<path style="fill:#5D5D84;" d="M99.739,418.823c-4.893,0-8.859-3.966-8.859-8.859V113.911c0-4.893,3.967-8.859,8.859-8.859    c4.893,0,8.859,3.966,8.859,8.859v296.052C108.598,414.857,104.631,418.823,99.739,418.823z"/>
	</g>
	<path style="fill:#494970;" d="M99.739,352.265c-4.893,0-8.859-3.966-8.859-8.859v66.558c0,4.893,3.966,8.859,8.859,8.859   s8.859-3.966,8.859-8.859v-66.558C108.598,348.299,104.631,352.265,99.739,352.265z"/>
	<g>
		<path style="fill:#FAB941;" d="M99.739,512c-4.893,0-8.859-3.966-8.859-8.859v-66.397c0-4.893,3.967-8.859,8.859-8.859    c4.893,0,8.859,3.966,8.859,8.859v66.397C108.598,508.034,104.631,512,99.739,512z"/>
	</g>
	<circle style="fill:#FAB941;" cx="99.739" cy="414.424" r="22.32"/>
	<path style="fill:#F6A221;" d="M96.752,405.564c0-5.031,1.666-9.673,4.474-13.406c-0.492-0.032-0.987-0.055-1.487-0.055   c-12.327,0-22.32,9.993-22.32,22.32s9.993,22.32,22.32,22.32c7.296,0,13.773-3.501,17.846-8.915   C105.952,427.064,96.752,417.391,96.752,405.564z"/>
	<g>
		<path style="fill:#FAD964;" d="M113.975,448.705H85.503c-4.893,0-8.859-3.966-8.859-8.859s3.967-8.859,8.859-8.859h28.473    c4.893,0,8.859,3.966,8.859,8.859S118.868,448.705,113.975,448.705z"/>
	</g>
</g>















</svg>
