<?xml version="1.0" encoding="iso-8859-1"?>
<!-- Generator: Adobe Illustrator 21.0.0, SVG Export Plug-In . SVG Version: 6.00 Build 0)  -->
<svg xmlns="http://www.w3.org/2000/svg" xmlns:xlink="http://www.w3.org/1999/xlink" version="1.1" id="Capa_1" x="0px" y="0px" viewBox="0 0 512 512" style="enable-background:new 0 0 512 512;" xml:space="preserve" width="512" height="512">
<g>
	<path style="fill:#566CC3;" d="M269.406,22.36C134.299,14.957,18.771,118.48,11.367,253.587   c-2.785,50.825,10.131,98.876,34.518,139.446l196.057,118.549c0.218,0.012,0.434,0.032,0.652,0.044   c135.107,7.404,250.635-96.12,258.039-231.227C508.037,145.293,404.513,29.765,269.406,22.36z"/>
	<path style="fill:#F5585C;" d="M305.077,339.905c-40.434,28.798-69.035-6.679-69.035-6.679l-6.972-4.026l-22.065-12.739   l-6.973-4.026c0,0-45.025-7.031-40.302-56.446c0.36-3.763-3.859-6.204-6.904-3.964l-13.792,10.143   c-9.898,7.279-14.705,19.716-12.005,31.703c0.127,0.564,0.252,1.139,0.373,1.724c6.171,29.862-11.75,59.317-40.817,68.535   c-16.113,5.11-30.745,13.775-42.593,25.674c40.058,69.004,112.981,117.13,198.602,121.822c1.03,0.056,2.055,0.086,3.082,0.13   c5.712-17.603,6.303-36.32,2.319-54.435c-6.55-29.781,9.998-60.03,38.945-69.616c0.567-0.188,1.127-0.368,1.68-0.54   c11.731-3.654,20.098-14.036,21.453-26.248l1.888-17.016C312.379,340.145,308.156,337.711,305.077,339.905z"/>
	<g>
		<path style="fill:#E34450;" d="M122.013,391.786c27.841-10.087,47.817-42.921,40.444-80.261    c-1.611-8.166-0.533-16.505,2.684-23.678c-4.247-7.911-6.709-18.283-5.411-31.859c0.36-3.763-3.859-6.203-6.904-3.963    l-13.792,10.143c-9.898,7.28-14.705,19.717-12.005,31.703c7.198,31.942-11.847,61.19-40.444,70.26    c-16.112,5.11-30.745,13.775-42.593,25.674c11.516,19.837,25.753,37.945,42.222,53.795    C85.968,421.196,99.438,399.961,122.013,391.786z"/>
	</g>
	<g>
		<path style="fill:#E2E9F2;" d="M329.604,88.008L179.459,348.067c-1.41,2.443-0.574,5.567,1.869,6.978l27.163,15.682    c2.443,1.41,5.567,0.573,6.978-1.87l150.145-260.059L329.604,88.008z"/>
	</g>
	<g>
		<path style="fill:#C7D6E5;" d="M349.028,99.223l-19.424-11.215L179.459,348.067c-1.41,2.443-0.573,5.567,1.869,6.978l17.038,9.837    c-1.125-0.65-0.894-3.157,0.517-5.6L349.028,99.223z"/>
		<polygon style="fill:#C7D6E5;" points="199.837,365.731 208.491,370.727 208.492,370.727   "/>
	</g>
	<g>
		<path style="fill:#494970;" d="M399.604,95.838l22.767-53.367c1.953-4.578,1.374-9.844-1.526-13.889l-13.041-18.185    c-3.305-4.608-8.434-7.569-14.077-8.127l-22.269-2.201c-4.953-0.489-9.803,1.642-12.792,5.623l-34.834,46.4    c-2.84,3.783-3.616,8.729-2.073,13.2l7.843,22.717c13.112,7.57,22.898,13.22,36.01,20.79l23.595-4.566    C393.853,103.334,397.748,100.189,399.604,95.838z"/>
	</g>
	<path style="fill:#3A3A60;" d="M345.61,23.085l-21.776,29.007c-2.84,3.783-3.616,8.729-2.073,13.2l7.843,22.717   c13.112,7.57,22.898,13.22,36.01,20.79l23.595-4.565c4.644-0.899,8.539-4.044,10.395-8.395l14.684-34.42   C385.489,89.04,337.061,63.016,345.61,23.085z"/>
	<g>
		<path style="fill:#E34450;" d="M197.34,390.031l-27.162-15.682c-2.443-1.411-5.567-0.574-6.978,1.87l-4.849,8.398    c-1.411,2.444-0.574,5.567,1.87,6.978l27.162,15.682c2.443,1.411,5.567,0.574,6.978-1.87l4.849-8.398    C200.62,394.566,199.783,391.442,197.34,390.031z"/>
	</g>
	<path style="fill:#D13044;" d="M178.188,390.472L178.188,390.472c2.323-4.024,6.91-5.918,11.223-5.018l-19.233-11.104   c-2.443-1.411-5.567-0.573-6.978,1.87l-4.849,8.398c-1.411,2.444-0.574,5.567,1.87,6.978l19.233,11.104   C176.518,399.414,175.865,394.495,178.188,390.472z"/>
	<g>
		<path style="fill:#5D5D84;" d="M419.836,63.053l-14.667-3.459c-4.418-1.042-7.156-5.469-6.114-9.888    c1.043-4.418,5.474-7.157,9.888-6.114l14.667,3.459c4.419,1.042,7.156,5.469,6.114,9.888    C428.678,61.373,424.238,64.092,419.836,63.053z"/>
	</g>
	<g>
		<path style="fill:#5D5D84;" d="M408.769,92.943l-14.667-3.458c-4.418-1.042-7.155-5.468-6.114-9.887    c1.043-4.42,5.471-7.158,9.888-6.114l14.667,3.458c4.418,1.042,7.155,5.468,6.114,9.887    C417.611,91.263,413.171,93.982,408.769,92.943z"/>
	</g>
	<g>
		<path style="fill:#5D5D84;" d="M352.439,29.149l-10.555-11.213c-3.111-3.306-2.954-8.509,0.351-11.62    c3.306-3.11,8.508-2.955,11.62,0.352l10.555,11.214c3.112,3.306,2.954,8.508-0.351,11.62    C360.754,32.612,355.55,32.455,352.439,29.149z"/>
	</g>
	<g>
		<path style="fill:#5D5D84;" d="M332.087,53.68l-10.329-10.973c-3.112-3.306-2.954-8.508,0.351-11.62    c3.305-3.109,8.509-2.955,11.62,0.352l10.329,10.973c3.111,3.306,2.954,8.508-0.351,11.62    C340.401,57.142,335.199,56.986,332.087,53.68z"/>
	</g>
	<g>
		<path style="fill:#C7D6E5;" d="M228.394,346.471l-36.01-20.79c-3.931-2.27-5.279-7.298-3.009-11.229    c2.269-3.932,7.296-5.279,11.229-3.009l36.01,20.79c3.931,2.27,5.279,7.298,3.009,11.229    C237.352,347.397,232.324,348.74,228.394,346.471z"/>
	</g>
	<path style="fill:#AEBFCE;" d="M212.626,327.875c1.904-3.299,5.639-4.871,9.18-4.191l-21.202-12.241   c-3.933-2.271-8.96-0.924-11.229,3.009c-2.27,3.931-0.923,8.959,3.009,11.229l21.205,12.243   C211.229,335.197,210.721,331.174,212.626,327.875z"/>
	<g>
		<path style="fill:#F6A221;" d="M462.645,169.167c-1.776-4.178,0.172-9.005,4.351-10.78l18.388-7.813    c4.179-1.773,9.005,0.172,10.779,4.352c1.776,4.178-0.172,9.005-4.351,10.78l-18.388,7.812    C469.25,175.291,464.422,173.353,462.645,169.167z"/>
	</g>
	<g>
		<path style="fill:#F5585C;" d="M434.986,140.222c-4.029-2.093-5.598-7.056-3.504-11.084l2.303-4.432    c2.094-4.029,7.058-5.599,11.085-3.503c4.029,2.093,5.598,7.056,3.504,11.085l-2.303,4.432    C443.966,140.768,438.992,142.306,434.986,140.222z"/>
	</g>
	<g>
		<g>
			<path style="fill:#FAD964;" d="M186.943,201.694c-4.54,0-8.22-3.68-8.22-8.22v-9.9c0-4.54,3.68-8.22,8.22-8.22     c4.54,0,8.22,3.68,8.22,8.22v9.9C195.163,198.014,191.483,201.694,186.943,201.694z"/>
		</g>
		<g>
			<path style="fill:#FAD964;" d="M186.943,148.268c-4.54,0-8.22-3.68-8.22-8.22v-9.428c0-4.54,3.68-8.22,8.22-8.22     c4.54,0,8.22,3.68,8.22,8.22v9.428C195.163,144.588,191.483,148.268,186.943,148.268z"/>
		</g>
		<g>
			<path style="fill:#FAD964;" d="M218.369,170.267h-9.9c-4.54,0-8.22-3.68-8.22-8.22s3.68-8.22,8.22-8.22h9.9     c4.54,0,8.22,3.68,8.22,8.22S222.91,170.267,218.369,170.267z"/>
		</g>
		<g>
			<path style="fill:#FAD964;" d="M164.944,170.267h-9.429c-4.54,0-8.22-3.68-8.22-8.22s3.68-8.22,8.22-8.22h9.429     c4.54,0,8.22,3.68,8.22,8.22S169.484,170.267,164.944,170.267z"/>
		</g>
	</g>
	<g>
		<path style="fill:#E34450;" d="M177.426,424.523l-27.162-15.682c-2.443-1.411-5.567-0.574-6.978,1.87l-4.849,8.398    c-1.411,2.444-0.574,5.567,1.87,6.978l27.162,15.682c2.443,1.411,5.567,0.574,6.978-1.87l4.849-8.398    C180.706,429.058,179.87,425.934,177.426,424.523z"/>
	</g>
	<path style="fill:#D13044;" d="M158.274,424.963L158.274,424.963c2.323-4.024,6.91-5.918,11.223-5.018l-19.233-11.104   c-2.443-1.411-5.567-0.573-6.978,1.87l-4.849,8.398c-1.411,2.444-0.574,5.567,1.87,6.978l19.233,11.104   C156.604,433.906,155.951,428.987,158.274,424.963z"/>
	<g>
		<path style="fill:#E34450;" d="M157.512,459.015l-27.162-15.682c-2.443-1.411-5.567-0.573-6.978,1.87l-4.849,8.398    c-1.411,2.444-0.574,5.567,1.87,6.978l27.162,15.682c2.443,1.411,5.567,0.574,6.978-1.87l4.849-8.398    C160.793,463.55,159.956,460.426,157.512,459.015z"/>
	</g>
	<path style="fill:#D13044;" d="M138.361,459.455L138.361,459.455c2.323-4.024,6.91-5.918,11.223-5.018l-19.233-11.104   c-2.443-1.411-5.567-0.573-6.978,1.87l-4.849,8.398c-1.411,2.444-0.574,5.567,1.87,6.978l19.233,11.104   C136.69,468.398,136.038,463.479,138.361,459.455z"/>
	<g>
		<path style="fill:#C7D6E5;" d="M250.579,308.046l-36.01-20.79c-3.931-2.27-5.279-7.298-3.009-11.229    c2.269-3.932,7.296-5.28,11.229-3.009l36.01,20.791c3.931,2.27,5.279,7.298,3.009,11.229    C259.537,308.972,254.509,310.314,250.579,308.046z"/>
	</g>
	<path style="fill:#AEBFCE;" d="M234.811,289.449c1.904-3.299,5.639-4.871,9.18-4.191l-21.202-12.241   c-3.933-2.271-8.96-0.924-11.229,3.009c-2.27,3.931-0.923,8.959,3.009,11.229l21.205,12.243   C233.414,296.771,232.906,292.748,234.811,289.449z"/>
	<g>
		<path style="fill:#C7D6E5;" d="M272.763,269.626l-36.01-20.791c-3.931-2.27-5.279-7.298-3.009-11.229    c2.269-3.932,7.296-5.28,11.229-3.009l36.01,20.79c3.931,2.27,5.279,7.298,3.009,11.229    C281.721,270.552,276.693,271.895,272.763,269.626z"/>
	</g>
	<path style="fill:#AEBFCE;" d="M256.995,251.03c1.904-3.299,5.639-4.871,9.18-4.191l-21.202-12.241   c-3.933-2.271-8.96-0.924-11.229,3.009c-2.27,3.931-0.923,8.959,3.009,11.229l21.205,12.243   C255.598,258.352,255.09,254.329,256.995,251.03z"/>
	<g>
		<path style="fill:#C7D6E5;" d="M294.948,231.201l-36.01-20.79c-3.931-2.27-5.279-7.298-3.009-11.229    c2.269-3.932,7.296-5.279,11.229-3.009l36.01,20.79c3.931,2.27,5.279,7.298,3.009,11.229    C303.906,232.127,298.878,233.469,294.948,231.201z"/>
	</g>
	<path style="fill:#AEBFCE;" d="M279.18,212.604c1.904-3.299,5.639-4.871,9.18-4.191l-21.202-12.241   c-3.933-2.271-8.96-0.924-11.229,3.009c-2.27,3.931-0.923,8.959,3.009,11.229l21.205,12.243   C277.783,219.926,277.275,215.903,279.18,212.604z"/>
	<g>
		<path style="fill:#C7D6E5;" d="M317.134,192.769l-36.01-20.79c-3.931-2.27-5.279-7.298-3.009-11.229    c2.269-3.932,7.296-5.279,11.229-3.009l36.01,20.79c3.931,2.27,5.279,7.298,3.009,11.229    C326.093,193.695,321.064,195.038,317.134,192.769z"/>
	</g>
	<path style="fill:#AEBFCE;" d="M301.366,174.173c1.904-3.299,5.639-4.871,9.18-4.191l-21.202-12.241   c-3.933-2.271-8.96-0.924-11.229,3.009c-2.27,3.931-0.923,8.959,3.009,11.229l21.205,12.243   C299.969,181.495,299.461,177.472,301.366,174.173z"/>
	<g>
		<path style="fill:#C7D6E5;" d="M339.319,154.344l-36.01-20.791c-3.931-2.27-5.279-7.298-3.009-11.229    c2.269-3.932,7.296-5.279,11.229-3.009l36.01,20.791c3.931,2.27,5.279,7.298,3.009,11.229    C348.278,155.27,343.249,156.612,339.319,154.344z"/>
	</g>
	<path style="fill:#AEBFCE;" d="M323.551,135.747c1.904-3.299,5.639-4.871,9.18-4.191l-21.202-12.241   c-3.933-2.271-8.96-0.924-11.229,3.009c-2.27,3.931-0.923,8.959,3.009,11.229l21.205,12.243   C322.154,143.069,321.646,139.046,323.551,135.747z"/>
	<g>
		<path style="fill:#C7D6E5;" d="M361.504,115.918l-36.01-20.79c-3.931-2.27-5.279-7.298-3.009-11.229    c2.269-3.932,7.296-5.28,11.229-3.009l36.01,20.791c3.931,2.27,5.279,7.298,3.009,11.229    C370.462,116.844,365.434,118.186,361.504,115.918z"/>
	</g>
	<path style="fill:#AEBFCE;" d="M345.736,97.322c1.904-3.299,5.639-4.871,9.18-4.191l-21.202-12.241   c-3.933-2.271-8.96-0.924-11.229,3.009c-2.27,3.931-0.923,8.959,3.009,11.229l21.205,12.243   C344.339,104.643,343.831,100.62,345.736,97.322z"/>
	<path style="fill:#FAD964;" d="M463.081,212.402c-4.977-22.743-41.805-41.339-62.728-49.089c-3.041-1.122-6.553-0.555-9.104,1.63   c-2.081,1.782-3.194,4.382-3.194,6.927v101.825c0,7.951-6.207,14.639-14.152,14.956c-15.597,0.623-29.215,10.331-29.215,23.243   c0,12.839,13.794,23.246,30.811,23.246c17.016,0,30.811-10.408,30.811-23.246v-106.26c0-1.424,1.312-2.499,2.704-2.203   c19.597,4.172,27.91,14.582,30.868,19.597c0.844,1.432,0.804,3.202-0.036,4.637c-2.092,3.575-1.547,8.267,1.635,11.26   c3.672,3.453,9.482,3.088,13.011-0.512C464.131,228.579,464.493,218.855,463.081,212.402z"/>
	<g>
		<path style="fill:#FAB941;" d="M428.059,176.241c-9.794-5.597-19.866-10.024-27.706-12.928c-3.041-1.122-6.553-0.555-9.104,1.63    c-2.081,1.782-3.194,4.382-3.194,6.927v101.825c0,7.951-6.207,14.639-14.152,14.956c-15.597,0.623-29.215,10.331-29.215,23.243    c0,12.839,13.795,23.246,30.811,23.246c17.016,0,30.811-10.408,30.811-23.246v-106.26c0-1.423,1.312-2.499,2.704-2.203    c3.235,0.689,6.157,1.55,8.804,2.527C408.898,195.396,414.508,179.058,428.059,176.241z"/>
	</g>
	<path style="fill:#F6A221;" d="M379.593,287.216c-1.735,0.835-3.65,1.354-5.69,1.435c-15.597,0.623-29.215,10.331-29.215,23.243   c0,12.839,13.795,23.246,30.811,23.246c13.038,0,24.175-6.113,28.675-14.744C384.144,327.234,367.35,304.173,379.593,287.216z"/>
</g>















</svg>
