<?xml version="1.0" encoding="iso-8859-1"?>
<!-- Generator: Adobe Illustrator 21.0.0, SVG Export Plug-In . SVG Version: 6.00 Build 0)  -->
<svg xmlns="http://www.w3.org/2000/svg" xmlns:xlink="http://www.w3.org/1999/xlink" version="1.1" id="Capa_1" x="0px" y="0px" viewBox="0 0 512 512" style="enable-background:new 0 0 512 512;" xml:space="preserve" width="512" height="512">
<g>
	
		<ellipse transform="matrix(0.0547 -0.9985 0.9985 0.0547 -24.6016 508.0002)" style="fill:#566CC3;" cx="256" cy="266.993" rx="245" ry="245"/>
	<path style="fill:#E2E9F2;" d="M346.144,439.191c-4.78,0-8.653,3.874-8.653,8.653v50.253c5.87-2.073,11.644-4.358,17.307-6.858   v-43.395C354.797,443.065,350.923,439.191,346.144,439.191z"/>
	<path style="fill:#E2E9F2;" d="M191.524,410.494c-4.78,0-8.653,3.874-8.653,8.653v81.727c5.679,1.771,11.45,3.345,17.307,4.708   v-86.436C200.177,414.368,196.304,410.494,191.524,410.494z"/>
	<path style="fill:#C7D6E5;" d="M346.144,439.191c-4.78,0-8.653,3.875-8.653,8.653v33.667c0-4.779,3.874-8.653,8.653-8.653   s8.653,3.874,8.653,8.653v-33.667C354.797,443.065,350.923,439.191,346.144,439.191z"/>
	<path style="fill:#C7D6E5;" d="M191.524,410.494c-4.78,0-8.653,3.875-8.653,8.653v33.667c0-4.779,3.874-8.653,8.653-8.653   c4.78,0,8.653,3.875,8.653,8.653v-33.667C200.177,414.369,196.304,410.494,191.524,410.494z"/>
	<g>
		<path style="fill:#F5585C;" d="M378.887,424.943l-15.376-26.694h-17.366h-17.366l-15.376,26.694    c-6.204,10.771-0.709,24.51,11.211,28.032l0,0c14.054,4.152,29.009,4.152,43.063,0h0    C379.596,449.453,385.091,435.714,378.887,424.943z"/>
	</g>
	<g>
		<path style="fill:#F5585C;" d="M346.144,108.752L346.144,108.752h-0.001c-4.317,0-8.542,0.212-12.69,0.584    c24.404,57.941,15.175,129.936-41.462,179.193l-43.915,38.192c3.705,4.101,7.733,8.068,12.104,11.87l68.597,59.658    c12.435,0,22.298,0,34.733,0l68.597-59.658C523.523,259.087,467.295,108.752,346.144,108.752z"/>
	</g>
	<path style="fill:#E34450;" d="M316.583,338.591c-11.349-14.833-19.274-32.134-24.14-50.462c-0.152,0.133-0.299,0.268-0.451,0.4   l-43.915,38.192c3.705,4.101,7.733,8.068,12.104,11.87l68.597,59.658h33.448L316.583,338.591z"/>
	<g>
		<path style="fill:#FAD964;" d="M230.671,391.768l-18.383-31.914h-20.762h-20.763l-18.383,31.914    c-7.418,12.877-0.848,29.303,13.404,33.514l0,0c16.802,4.964,34.682,4.964,51.484,0h0    C231.519,421.071,238.088,404.645,230.671,391.768z"/>
	</g>
	<path style="fill:#E34450;" d="M364.383,452.975c-11.921-3.522-17.416-17.261-11.211-28.032l12.858-22.321l-2.519-4.373h-17.366   h-17.366l-15.376,26.694c-6.204,10.771-0.709,24.51,11.212,28.032c13.507,3.991,27.844,4.134,41.416,0.454   C365.48,453.28,364.93,453.136,364.383,452.975z"/>
	<path style="fill:#FAB941;" d="M205.553,425.281c-14.252-4.21-20.822-20.636-13.404-33.514l18.383-31.914h-19.008h-20.763   l-18.383,31.914c-7.418,12.877-0.848,29.303,13.404,33.514c14.864,4.392,30.569,4.891,45.627,1.512   C209.446,426.353,207.492,425.854,205.553,425.281z"/>
	<g>
		<path style="fill:#FAD964;" d="M191.525,13.743L191.525,13.743L191.525,13.743h-0.001c-144.843,0-212.067,179.734-102.774,274.786    l82.012,71.325c14.867,0,26.658,0,41.525,0l82.012-71.325C403.592,193.477,336.368,13.743,191.525,13.743z"/>
	</g>
	<path style="fill:#FAB941;" d="M207.005,14.45c-5.055-0.462-10.214-0.707-15.48-0.707h0h-0.001   c-144.843,0-212.067,179.734-102.774,274.786l82.012,71.325c11.528,0,21.212,0,31.909,0l-67.285-71.325   C48.98,196.932,97.057,26.705,207.005,14.45z"/>
	<g>
		<path style="fill:#F5585C;" d="M125.597,185.299c25.459,72.659,106.27,72.723,131.852,0.006c1.135-3.227-1.28-6.611-4.701-6.611    H130.3C126.882,178.694,124.467,182.073,125.597,185.299z"/>
	</g>
	<path style="fill:#E34450;" d="M252.749,178.694h-44.58c2.224,0,3.794,3.384,3.056,6.611   c-6.843,29.917-19.765,47.504-33.758,52.795c30.765,7.565,64.931-10.013,79.982-52.795   C258.585,182.078,256.169,178.694,252.749,178.694z"/>
	<g>
		<path style="fill:#FAD964;" d="M335.362,51.47c-1.869-4.399,0.181-9.479,4.58-11.348l19.357-8.224    c4.398-1.867,9.479,0.181,11.347,4.58c1.869,4.399-0.181,9.479-4.58,11.348l-19.357,8.224    C342.325,57.912,337.237,55.884,335.362,51.47z"/>
	</g>
	<g>
		<path style="fill:#FAD964;" d="M306.248,21c-4.241-2.203-5.894-7.427-3.69-11.668l2.423-4.666    c2.202-4.242,7.429-5.892,11.667-3.69c4.241,2.203,5.894,7.427,3.69,11.668l-2.424,4.666C315.711,21.556,310.484,23.2,306.248,21z    "/>
	</g>
	<g>
		<path style="fill:#F6A221;" d="M150.653,128.088c-1.063-2.231-3.244-3.617-5.695-3.617c-2.451,0-4.633,1.386-5.696,3.617    c-2.056,4.315-7.22,6.146-11.534,4.091c-4.314-2.055-6.146-7.219-4.091-11.534c3.901-8.189,12.27-13.481,21.321-13.481    c9.05,0,17.419,5.292,21.32,13.481c2.055,4.315,0.223,9.478-4.091,11.534C157.865,134.237,152.706,132.395,150.653,128.088z"/>
	</g>
	<g>
		<path style="fill:#F6A221;" d="M243.788,128.089c-1.064-2.232-3.246-3.618-5.697-3.618c-2.451,0-4.633,1.386-5.697,3.618    c-2.055,4.314-7.224,6.143-11.534,4.089c-4.314-2.056-6.145-7.22-4.089-11.534c3.902-8.188,12.271-13.479,21.32-13.479    c9.049,0,17.418,5.291,21.32,13.479c2.056,4.314,0.225,9.478-4.089,11.534C250.998,134.239,245.84,132.393,243.788,128.089z"/>
	</g>
	<g>
		<path style="fill:#E2E9F2;" d="M373.93,406.902h-55.573c-4.78,0-8.653-3.874-8.653-8.653c0-4.779,3.874-8.653,8.653-8.653h55.573    c4.78,0,8.653,3.874,8.653,8.653C382.584,403.028,378.71,406.902,373.93,406.902z"/>
	</g>
	<g>
		<path style="fill:#E2E9F2;" d="M224.745,368.507h-66.44c-4.78,0-8.653-3.874-8.653-8.653c0-4.779,3.874-8.653,8.653-8.653h66.44    c4.78,0,8.653,3.874,8.653,8.653C233.398,364.633,229.524,368.507,224.745,368.507z"/>
	</g>
	<g>
		<path style="fill:#C7D6E5;" d="M373.93,424.209h-55.573c-4.78,0-8.653-3.874-8.653-8.653c0-4.779,3.874-8.653,8.653-8.653h55.573    c4.78,0,8.653,3.874,8.653,8.653C382.584,420.335,378.71,424.209,373.93,424.209z"/>
	</g>
	<g>
		<path style="fill:#C7D6E5;" d="M224.745,385.814h-66.44c-4.78,0-8.653-3.874-8.653-8.653c0-4.779,3.874-8.653,8.653-8.653h66.44    c4.78,0,8.653,3.874,8.653,8.653C233.398,381.939,229.524,385.814,224.745,385.814z"/>
	</g>
	<path style="fill:#C7D6E5;" d="M349.229,398.249c0-4.779,3.874-8.653,8.653-8.653h-39.525c-4.78,0-8.653,3.874-8.653,8.653   c0,4.779,3.874,8.653,8.653,8.653h39.525C353.103,406.902,349.229,403.028,349.229,398.249z"/>
	<path style="fill:#C7D6E5;" d="M189.176,359.854c0-4.779,3.874-8.653,8.653-8.653h-39.525c-4.78,0-8.653,3.875-8.653,8.653   c0,4.779,3.874,8.653,8.653,8.653h39.525C193.05,368.507,189.176,364.633,189.176,359.854z"/>
	<path style="fill:#AEBFCE;" d="M349.229,415.555c0-4.779,3.874-8.653,8.653-8.653h-39.525c-4.78,0-8.653,3.875-8.653,8.653   c0,4.779,3.874,8.654,8.653,8.654h39.525C353.103,424.209,349.229,420.335,349.229,415.555z"/>
	<path style="fill:#AEBFCE;" d="M189.176,377.16c0-4.779,3.874-8.653,8.653-8.653h-39.525c-4.78,0-8.653,3.875-8.653,8.653   c0,4.779,3.874,8.653,8.653,8.653h39.525C193.05,385.814,189.176,381.939,189.176,377.16z"/>
</g>















</svg>
