<?xml version="1.0" encoding="iso-8859-1"?>
<!-- Generator: Adobe Illustrator 21.0.0, SVG Export Plug-In . SVG Version: 6.00 Build 0)  -->
<svg xmlns="http://www.w3.org/2000/svg" xmlns:xlink="http://www.w3.org/1999/xlink" version="1.1" id="Capa_1" x="0px" y="0px" viewBox="0 0 512 512" style="enable-background:new 0 0 512 512;" xml:space="preserve" width="512" height="512">
<g>
	<path style="fill:#494970;" d="M280.4,22.361C145.293,14.957,29.765,118.48,22.361,253.587   c-2.841,51.847,10.667,100.802,36.013,141.879h417.287c20.758-33.648,33.65-72.813,35.965-115.066   C519.031,145.293,415.507,29.765,280.4,22.361z"/>
	<path style="fill:#F5585C;" d="M102.872,448.885c40.143,36.266,92.491,59.55,150.716,62.741   c67.856,3.719,130.767-20.55,177.529-62.741H102.872z"/>
	<g>
		<path style="fill:#E34450;" d="M298.615,448.885H102.872c40.143,36.266,92.491,59.55,150.716,62.741    c12.767,0.7,25.359,0.407,37.702-0.808C256.472,503.591,259.998,448.885,298.615,448.885z"/>
	</g>
	<path style="fill:#C7D6E5;" d="M409.159,273.697c7.946,3.359,14.966,8.23,20.764,14.218v-50.228c0-0.767,0.009-1.533,0.024-2.297   h-20.813c0.015,0.764,0.025,1.53,0.025,2.297V273.697z"/>
	<path style="fill:#AEBFCE;" d="M409.159,258.941c1.636-4.137,5.663-7.068,10.382-7.068c4.719,0,8.745,2.931,10.382,7.068   c0.009-22.089-0.02-21.271,0.024-23.55h-20.813C409.178,237.652,409.149,236.854,409.159,258.941z"/>
	<path style="fill:#E2E9F2;" d="M419.54,212.692L419.54,212.692c-11.977,0-23.006-4.033-31.824-10.803   c-0.54-0.182-1.078-0.366-1.613-0.557c10.214,8.542,17.298,19.494,20.512,31.44c0.694,2.579,3.017,4.378,5.688,4.378h14.475   c2.671,0,4.994-1.8,5.688-4.378c3.213-11.945,10.298-22.898,20.512-31.44c-0.534,0.191-1.073,0.375-1.613,0.557   C442.546,208.659,431.517,212.692,419.54,212.692z"/>
	<path style="fill:#F9D6BF;" d="M511.635,280.189c-15.676-0.747-28.622,11.733-28.622,27.245c0,0.008,0,0.016,0,0.024   c0.001,1.276-0.991,2.328-2.267,2.328H425.32c1.858,5.989,2.856,12.315,2.856,18.813c0,8.234-1.587,16.093-4.443,23.311h57.02   c1.263,0,2.264,1.03,2.261,2.293c-0.018,6.432,2.181,12.273,5.816,16.89c13.003-27.685,21.02-58.277,22.796-90.695   C511.63,280.33,511.631,280.26,511.635,280.189z"/>
	<path style="fill:#EFC1A8;" d="M428.137,330.24c-0.197,7.637-1.738,14.936-4.404,21.672h57.02c1.263,0,2.264,1.03,2.261,2.293   c-0.018,6.433,2.181,12.273,5.816,16.89c6.111-13.011,11.105-26.672,14.883-40.855H428.137z"/>
	<path style="fill:#BC4C2E;" d="M405.451,268.791c-4.792-1.68-9.889-3.237-15.238-4.567c-19.957-4.962-36.446-19.183-43.855-38.366   c-18.709-48.434-73.354-128.338-227.144-98.219v0.453c33.319,5.561,59.509,62.41,59.509,131.729s-26.19,126.168-59.509,131.729   v0.453h265.17c35.017,0,63.404-28.387,63.404-63.404l0,0C447.787,301.7,430.836,277.689,405.451,268.791z"/>
	<g>
		<path style="fill:#AB3829;" d="M434.756,290.067c-12.849,12.456-35.053,14.57-57.132,4.92c-4.533-1.981-9.252-4.221-14.066-6.746    c-17.962-9.423-37.361-11.374-51.837-4.876c-25.419,11.41-71.395,20.88-133.244-12.078    c-2.701,64.028-27.802,115.012-59.264,120.263v0.454h265.17c35.017,0,63.404-28.387,63.404-63.404    C447.787,314.335,443.02,300.884,434.756,290.067z"/>
		<g>
			<path style="fill:#AB3829;" d="M217.282,305.163c-9.487,0.912-18.292-6.018-19.238-15.864     c-1.072-11.158,8.432-20.361,19.319-19.233c8.761,0.919,15.016,7.876,15.783,15.859     C234.086,295.697,226.822,304.246,217.282,305.163z"/>
		</g>
		<g>
			<path style="fill:#AB3829;" d="M255.339,305.192c-6.07,0.583-11.705-3.851-12.31-10.151c-0.686-7.139,5.395-13.029,12.362-12.307     c5.606,0.588,9.608,5.04,10.099,10.148C266.091,299.135,261.443,304.605,255.339,305.192z"/>
		</g>
		<g>
			<path style="fill:#AB3829;" d="M248.537,266.281c-4.885,0.47-9.419-3.099-9.907-8.169c-0.552-5.746,4.342-10.485,9.948-9.904     c4.512,0.473,7.733,4.056,8.128,8.167C257.19,261.407,253.45,265.809,248.537,266.281z"/>
		</g>
	</g>
	<ellipse style="fill:#FC757E;" cx="119.213" cy="259.821" rx="64.877" ry="132.182"/>
	<g>
		<path style="fill:#F5585C;" d="M99.994,163.174c-8.691-4.148-12.389-14.556-8.096-23.273    c-22.181,21.009-37.561,66.801-37.561,119.92c0,59.369,19.211,109.594,45.657,126.284V163.174z"/>
	</g>
	<ellipse style="fill:#F5585C;" cx="101.847" cy="259.822" rx="47.51" ry="96.799"/>
	<path style="fill:#E34450;" d="M131.587,332.189c-26.239,0-47.51-43.338-47.51-96.799c0-28.745,6.152-54.559,15.917-72.288   c-25.38,1.984-45.657,44.523-45.657,96.718c0,53.46,21.271,96.799,47.51,96.799c12.131,0,23.197-9.268,31.593-24.511   C132.825,332.157,132.208,332.189,131.587,332.189z"/>
	<ellipse style="fill:#F9D6BF;" cx="84.077" cy="259.821" rx="14.87" ry="30.297"/>
	<path style="fill:#F5585C;" d="M456.633,395.466c7.858-8.795,12.642-20.396,12.642-33.119c0-27.468-22.267-49.735-49.735-49.735   c-27.468,0-49.735,22.267-49.735,49.735c0,12.723,4.784,24.324,12.642,33.119H456.633z"/>
	<path style="fill:#E34450;" d="M438.961,316.548c-5.967-2.533-12.53-3.936-19.421-3.936c-27.468,0-49.735,22.267-49.735,49.735   c0,12.723,4.783,24.324,12.642,33.119h38.841c-7.858-8.795-12.642-20.397-12.642-33.119   C408.647,341.77,421.144,324.113,438.961,316.548z"/>
	<path style="fill:#FC757E;" d="M384.355,395.466c7.858-8.795,12.642-20.396,12.642-33.119c0-27.468-22.267-49.735-49.735-49.735   s-49.735,22.267-49.735,49.735c0,12.723,4.783,24.324,12.642,33.119H384.355z"/>
	<path style="fill:#F5585C;" d="M366.683,316.548c-5.967-2.533-12.53-3.936-19.421-3.936c-27.468,0-49.735,22.267-49.735,49.735   c0,12.723,4.783,24.324,12.642,33.119h38.841c-7.859-8.795-12.642-20.397-12.642-33.119   C336.369,341.77,348.865,324.113,366.683,316.548z"/>
	<path style="fill:#37C47A;" d="M367.613,394.312c1.445-3.42,2.234-7.166,2.19-11.088c-0.221-20.032-20.161-33.338-38.54-26.584   c-2.984,1.097-6.209-0.585-7.036-3.655c-4.373-16.237-21.824-25.263-37.613-19.404c-2.911,1.08-5.933-0.712-6.465-3.579   c-3.782-20.389-27.327-29.974-44.261-18.458c-2.238,1.522-5.231,1.188-7.025-0.839c-11.413-12.897-31.523-12.902-42.94,0   c-1.793,2.027-4.787,2.361-7.025,0.839c-16.943-11.522-40.482-1.917-44.261,18.458c-0.531,2.864-3.548,4.661-6.465,3.579   c-15.766-5.85-33.233,3.143-37.613,19.404c-0.824,3.058-4.035,4.761-7.006,3.666c-18.479-6.814-38.573,6.678-38.571,26.903   c0,3.806,0.749,7.436,2.097,10.758H367.613z"/>
	<g>
		<path style="fill:#2BB381;" d="M175.119,355.274c2.67-0.439,4.61-2.744,4.514-5.448c-0.614-17.217,13.965-31.069,31.123-29.584    c2.696,0.233,5.096-1.587,5.669-4.232c0.925-4.268,2.736-8.041,5.165-11.228c-11.42-6.515-26.403-4.544-35.666,5.923    c-1.793,2.027-4.787,2.361-7.025,0.839c-16.943-11.523-40.482-1.917-44.261,18.458c-0.531,2.863-3.548,4.661-6.465,3.579    c-15.766-5.851-33.233,3.142-37.613,19.404c-0.824,3.058-4.035,4.762-7.006,3.666c-18.479-6.814-38.573,6.678-38.571,26.903    c0,3.806,0.749,7.436,2.097,10.758h106.143C146.431,377.746,156.728,358.296,175.119,355.274z"/>
	</g>
	<path style="fill:#E2E9F2;" d="M389.689,67.849c14.924,0,14.924-10.181,29.848-10.181c14.926,0,14.926,10.181,29.852,10.181   c11.948,0,14.338-6.519,22.471-9.122V6.793c0-3.752-3.041-6.793-6.793-6.793h-91.052c-3.752,0-6.793,3.042-6.793,6.793v51.934   C375.352,61.33,377.743,67.849,389.689,67.849z"/>
	<path style="fill:#C7D6E5;" d="M389.689,67.849c2.228,0,4.117-0.23,5.779-0.616V6.793c0-3.752,3.041-6.793,6.793-6.793h-28.247   c-3.752,0-6.793,3.042-6.793,6.793v51.934C375.352,61.33,377.743,67.849,389.689,67.849z"/>
	<path style="fill:#F5585C;" d="M471.859,56.251c-9.237,2.113-11.06,9.283-23.394,9.283c-14.464,0-14.464-9.866-28.928-9.866   c-14.462,0-14.462,9.866-28.925,9.866c-12.333,0-14.155-7.17-23.391-9.283v106.548c0,28.895,23.424,52.319,52.319,52.319l0,0   c28.895,0,52.319-23.424,52.319-52.319V56.251z"/>
	<path style="fill:#E34450;" d="M419.54,215.118c4.652,0,9.516-0.655,14.123-1.945h0c-22.031-6.165-38.195-26.375-38.195-50.374   V65.098c-1.426,0.276-3.024,0.436-4.856,0.436c-12.333,0-14.155-7.17-23.391-9.283v106.548   C367.221,191.628,390.579,215.118,419.54,215.118z"/>
	<g>
		<path style="fill:#D13044;" d="M436.434,116.21c-4.78,0-8.655-3.867-8.655-8.655c0-3.964,2.706-7.596,6.959-8.482    c5.217-1.047,10.351,2.927,10.351,8.482C445.088,112.245,441.28,116.21,436.434,116.21z"/>
	</g>
	<g>
		<path style="fill:#D13044;" d="M419.54,160.313c-6.237,0-11.54-5.066-11.54-11.54c0-7.336,6.768-12.736,13.79-11.32    c5.65,1.147,9.289,6.071,9.289,11.32C431.079,155.199,425.812,160.313,419.54,160.313z"/>
	</g>
	<path style="fill:#C7D6E5;" d="M457.47,421.083c-132.151,0-416.585,0-426.266,0c0,0,33.423,4.205,56.997,36.819   c8.658,11.978,22.281,18.786,36.551,18.786c10.782,0,190.166,0,268.97,0C418.02,461.976,439.602,443.13,457.47,421.083z"/>
	<g>
		<path style="fill:#AEBFCE;" d="M183.136,457.902c-16.723-32.614-40.433-36.819-40.433-36.819c-62.093,0-107.722,0-111.5,0    c0,0,33.423,4.205,56.997,36.819c8.658,11.978,22.281,18.786,36.551,18.786c4.578,0,39.551,0,84.313,0    C198.942,476.688,189.278,469.879,183.136,457.902z"/>
	</g>
	<path style="fill:#E2E9F2;" d="M477.749,392.004H16.248C7.274,392.004,0,399.278,0,408.252c0,8.974,7.274,16.248,16.248,16.248   h438.407C463.19,414.348,470.924,403.487,477.749,392.004z"/>
	<path style="fill:#C7D6E5;" d="M138,408.252c0-8.974,7.274-16.248,16.248-16.248h-138C7.274,392.004,0,399.278,0,408.252   c0,8.974,7.274,16.248,16.248,16.248h138C145.274,424.5,138,417.226,138,408.252z"/>
</g>















</svg>
