<?xml version="1.0" encoding="iso-8859-1"?>
<!-- Generator: Adobe Illustrator 21.0.0, SVG Export Plug-In . SVG Version: 6.00 Build 0)  -->
<svg xmlns="http://www.w3.org/2000/svg" xmlns:xlink="http://www.w3.org/1999/xlink" version="1.1" id="Capa_1" x="0px" y="0px" viewBox="0 0 512 512" style="enable-background:new 0 0 512 512;" xml:space="preserve" width="512" height="512">
<g>
	<path style="fill:#494970;" d="M245,11C124.91,11,25.013,97.405,4.056,211.436l151.315,272.649   C183.131,495.002,213.365,501,245,501c135.31,0,245-109.69,245-245S380.31,11,245,11z"/>
	<path style="fill:#E2E9F2;" d="M432.58,318.558c0-2.321-0.061-4.628-0.165-6.925c-16.706,9.149-35.284,15.264-54.984,17.573   c-9.303,1.09-16.728,8.699-17.225,18.053c-0.02,0.383-0.031,0.768-0.031,1.154v41.176c0,3.766-4.676,5.509-7.142,2.663   l-43.318-50.004c-6.604-7.623-16.192-12.002-26.277-12.002h-94.203c-81.439,0-148.473-64.789-152.124-145.369   c-11.889,6.51-22.826,14.563-32.542,23.88C1.582,224.045,0,239.837,0,256c0,104.632,65.598,193.928,157.906,229.048l1.904-2.198   c6.604-7.622,16.192-12.002,26.277-12.002h94.203C364.05,470.848,432.58,402.318,432.58,318.558L432.58,318.558z"/>
	<path style="fill:#C7D6E5;" d="M116.056,323.347L116.056,323.347c0-3.945,0.151-7.856,0.435-11.732   c-45.379-24.873-76.908-72.182-79.38-126.737c-11.889,6.51-22.826,14.563-32.542,23.88C1.582,224.045,0,239.837,0,256   c0,104.632,65.598,193.928,157.906,229.048l1.904-2.198c6.604-7.623,16.192-12.002,26.277-12.002h28.127   C156.69,446.536,116.056,389.457,116.056,323.347z"/>
	<path style="fill:#6393E4;" d="M189.235,26.635h170.94c0.159,0,0.316,0.01,0.475,0.012C443.981,27.158,512,95.479,512,178.924   v0.001c0,77.767-59.078,142.401-134.569,151.25c-9.303,1.09-16.728,8.699-17.225,18.053c-0.02,0.383-0.031,0.768-0.031,1.154   v41.176c0,3.766-4.676,5.509-7.142,2.663l-43.318-50.004c-6.604-7.622-16.192-12.002-26.277-12.002h-94.203   c-83.759,0-152.29-68.53-152.29-152.29v0C36.945,95.165,105.476,26.635,189.235,26.635z"/>
	<g>
		<path style="fill:#5D80D3;" d="M151.994,178.262L151.994,178.262c0-73.738,52.029-135.907,121.186-151.628h-83.945    c-83.759,0-152.289,68.53-152.289,152.29v0c0,83.759,68.53,152.29,152.29,152.29h90.395    C207.282,317.999,151.994,254.275,151.994,178.262z"/>
	</g>
	
		<ellipse transform="matrix(0.866 -0.5 0.5 0.866 -39.8004 208.721)" style="fill:#FAD964;" cx="369.579" cy="178.629" rx="78.984" ry="78.984"/>
	<path style="fill:#FAB941;" d="M326.291,203.621c-19.333-33.485-11.342-75.228,17.029-99.474c-4.509,1.595-8.941,3.602-13.233,6.08   c-37.778,21.811-50.721,70.117-28.91,107.894c21.811,37.778,70.117,50.721,107.895,28.91c4.292-2.478,8.245-5.313,11.882-8.42   C385.77,251.058,345.624,237.107,326.291,203.621z"/>
	<path style="fill:#F5585C;" d="M334.323,182.192c13.615,38.856,56.83,38.89,70.511,0.003c0.607-1.726-0.685-3.535-2.514-3.535   h-65.482C335.01,178.66,333.718,180.467,334.323,182.192z"/>
	<path style="fill:#E34450;" d="M402.32,178.66h-26.185c1.126,0,1.922,1.81,1.548,3.536c-3.374,15.575-9.666,24.9-16.535,27.994   c16.685,4.629,35.488-4.691,43.686-27.994C405.441,180.47,404.149,178.66,402.32,178.66z"/>
	<g>
		<path style="fill:#F6A221;" d="M345.344,152.731c-0.28-0.578-1.055-0.579-1.335,0c-1.726,3.621-6.061,5.157-9.681,3.432    c-3.621-1.726-5.158-6.06-3.432-9.681c5.515-11.574,22.038-11.59,27.56,0c1.726,3.621,0.189,7.955-3.432,9.681    C351.396,157.893,347.066,156.345,345.344,152.731z"/>
	</g>
	<g>
		<path style="fill:#F6A221;" d="M395.149,152.731c-0.28-0.578-1.055-0.579-1.335,0c-1.726,3.621-6.06,5.157-9.681,3.432    c-3.621-1.726-5.158-6.06-3.432-9.681c5.515-11.574,22.038-11.59,27.56,0c1.726,3.621,0.189,7.955-3.432,9.681    C401.201,157.893,396.871,156.345,395.149,152.731z"/>
	</g>
	
		<ellipse transform="matrix(0.866 -0.5 0.5 0.866 -65.4172 113.1179)" style="fill:#FAD964;" cx="178.372" cy="178.629" rx="78.984" ry="78.984"/>
	<path style="fill:#FAB941;" d="M135.085,203.621c-19.333-33.485-11.342-75.228,17.029-99.474c-4.509,1.595-8.941,3.602-13.233,6.08   c-37.778,21.811-50.721,70.117-28.91,107.894c21.811,37.778,70.117,50.721,107.895,28.91c4.292-2.478,8.245-5.313,11.882-8.42   C194.563,251.058,154.418,237.107,135.085,203.621z"/>
	<path style="fill:#F5585C;" d="M143.116,182.192c13.615,38.856,56.83,38.89,70.511,0.003c0.607-1.726-0.685-3.535-2.514-3.535   h-65.482C143.804,178.66,142.512,180.467,143.116,182.192z"/>
	<path style="fill:#E34450;" d="M211.113,178.66h-26.185c1.126,0,1.922,1.81,1.548,3.536c-3.374,15.575-9.666,24.9-16.535,27.994   c16.685,4.629,35.488-4.691,43.686-27.994C214.234,180.47,212.943,178.66,211.113,178.66z"/>
	<g>
		<path style="fill:#F6A221;" d="M154.137,152.731c-0.28-0.578-1.055-0.579-1.335,0c-1.726,3.621-6.061,5.157-9.681,3.432    c-3.621-1.726-5.158-6.06-3.432-9.681c5.515-11.574,22.038-11.59,27.56,0c1.726,3.621,0.189,7.955-3.432,9.681    C160.19,157.893,155.86,156.345,154.137,152.731z"/>
	</g>
	<g>
		<path style="fill:#F6A221;" d="M203.942,152.731c-0.28-0.578-1.055-0.579-1.335,0c-1.726,3.621-6.06,5.157-9.681,3.432    c-3.621-1.726-5.158-6.06-3.432-9.681c5.515-11.574,22.038-11.59,27.56,0c1.726,3.621,0.189,7.955-3.432,9.681    C209.995,157.893,205.665,156.345,203.942,152.731z"/>
	</g>
</g>















</svg>
